<svg xmlns="http://www.w3.org/2000/svg" xmlns:xlink="http://www.w3.org/1999/xlink" viewBox="0 0 140.49 199.72"><defs><style>.cls-1{fill:none;}.cls-2{clip-path:url(#clip-path);}.cls-3{fill:#201600;}</style><clipPath id="clip-path" transform="translate(0 0)"><rect class="cls-1" width="140.49" height="199.72"/></clipPath></defs><title>Ресурс 6</title><g id="Слой_2" data-name="Слой 2"><g id="Layer_1" data-name="Layer 1"><g class="cls-2"><g class="cls-2"><path class="cls-3" d="M68.08,0h4.3c.57.11,1.13.24,1.7.33,5.29.89,10.71,1.3,15.84,2.75a66,66,0,0,1,32,20.47,69.43,69.43,0,0,1,14.27,66.1,67.61,67.61,0,0,1-17.32,28.71,3,3,0,0,0-.85,3.68q10.94,29.82,21.71,59.69c.22.62.4,1.25.72,2.23l-29.34-13.7L97.44,199.72c-.91-2.42-1.65-4.34-2.35-6.28q-9.66-26.67-19.27-53.35a1.93,1.93,0,0,0-2.38-1.56,30.88,30.88,0,0,1-6.23,0c-1.54-.15-2.14.36-2.63,1.75q-10.3,28.59-20.7,57.17c-.23.64-.49,1.27-.87,2.23-4.68-10-9.18-19.71-13.71-29.43L0,184c.28-1,.42-1.51.61-2q10.8-29.76,21.67-59.5a3.41,3.41,0,0,0-.84-4.19C8.36,104.87,1.57,88.84,1.25,70.11A66.88,66.88,0,0,1,6.94,41.72,68.4,68.4,0,0,1,36.43,9,62.79,62.79,0,0,1,58.85,1.14C61.92.71,65,.38,68.08,0m2.13,115.61A46.26,46.26,0,1,0,24.1,69.49a46,46,0,0,0,46.11,46.12" transform="translate(0 0)"/></g></g></g></g></svg>