<svg xmlns="http://www.w3.org/2000/svg" xmlns:xlink="http://www.w3.org/1999/xlink" viewBox="0 0 135.73 180.89"><defs><style>.cls-1{fill:none;}.cls-2{clip-path:url(#clip-path);}</style><clipPath id="clip-path" transform="translate(0)"><rect class="cls-1" width="135.73" height="180.89"/></clipPath></defs><title>Ресурс 2</title><g id="Слой_2" data-name="Слой 2"><g id="Layer_1" data-name="Layer 1"><g class="cls-2"><g class="cls-2"><path d="M126.53,180.89H9.23a31.37,31.37,0,0,1-3-1.27C1.52,177.08,0,173,0,167.85Q.11,115.52,0,63.17q0-25.86,0-51.73A11.19,11.19,0,0,1,8.3.4,8.4,8.4,0,0,0,9.23,0h117.3c.08.08.15.2.24.23,6.44,2.18,8.94,5.69,8.94,12.45q0,48.47,0,96.92,0,29.75,0,59.49a11.16,11.16,0,0,1-6.77,10.84c-.78.37-1.61.64-2.41,1M22.73,56.4H113V22.71H22.73ZM45.14,68H22.75V90.37H45.14Zm34,0H56.69V90.3H79.13Zm33.9-.06H90.59v22.4H113ZM22.76,124.24H45.17v-22.4H22.76ZM79.1,101.87H56.71v22.4H79.1Zm11.51,22.35H113V101.83H90.61ZM22.76,158.15H45.13V135.7H22.76Zm33.94,0H79.09v-22.4H56.7Zm33.91,0H113v-22.4H90.61Z" transform="translate(0)"/></g></g></g></g></svg>