<svg xmlns="http://www.w3.org/2000/svg" xmlns:xlink="http://www.w3.org/1999/xlink" viewBox="0 0 73.02 48.21"><defs><style>.cls-1{fill:none;}.cls-2{clip-path:url(#clip-path);}.cls-3{fill:#4e4f4f;}</style><clipPath id="clip-path" transform="translate(0 0)"><rect class="cls-1" width="73.02" height="48.21"/></clipPath></defs><title>Ресурс 9</title><g id="Слой_2" data-name="Слой 2"><g id="Layer_1" data-name="Layer 1"><g class="cls-2"><g class="cls-2"><path class="cls-3" d="M62.52,42.26a6,6,0,1,1-6-5.95,6,6,0,0,1,6,5.95M1.92,40a39.58,39.58,0,0,0,5.79.38A8.83,8.83,0,0,1,25,40.7c7.28.08,15.35.12,22.83.1a8.83,8.83,0,0,1,17.38-.2c5.24-.13,6.41-.33,6.74-.61s.78-4.44.93-9.76H0C-.08,34.66.48,39.15,1.92,40m14.42-3.68a6,6,0,1,0,5.95,5.95,6,6,0,0,0-5.95-5.95m56.63-9H.16c.29-3.11.9-5.74,1.76-6.36,2.3-1.66,16-11.85,16.81-12.48.47-.35,5.51-.31,9.87-.2.07-4.18.3-7.15.8-7.44C31.27-.2,70.66-.38,72,.87c.81.79,1.19,15.35,1,26.48M25.12,12.84h-5L11.74,19.1,9.55,20.72v.17H25.12Zm12.74,4.53,3.68-.62-.33-1.88-3.67.62-.4-2.34,3.93-.66-.32-1.91-6.26,1.06,1.74,10.25,2.32-.4ZM52,19.21c-.26-.36-.81-1.64-1.33-2.74A2.62,2.62,0,0,0,49,14.79v0a2.75,2.75,0,0,0,1.38-2.83,2.63,2.63,0,0,0-1.3-2,5.29,5.29,0,0,0-3.44-.24,22.09,22.09,0,0,0-3.06.73l1.72,10.11,2.29-.39-.69-4,.71-.12c.94-.14,1.44.13,1.93,1.36a13.75,13.75,0,0,0,1.12,2.27Zm7.81-1.32L59.45,16l-4.2.71-.41-2.42,3.77-.64-.33-1.89-3.76.64-.37-2.13,4-.67-.32-1.9L51.51,8.76,53.24,19Zm8.11-1.37-.33-1.91-4.2.72L63,12.9l3.76-.64-.32-1.89L62.62,11l-.35-2.12,4-.68-.32-1.9L59.62,7.38l1.74,10.24ZM46.12,11.36a6.23,6.23,0,0,0-1,.25l.48,2.83.9-.16c1.16-.19,1.75-.88,1.59-1.78s-.88-1.3-1.94-1.14" transform="translate(0 0)"/></g></g></g></g></svg>