<svg xmlns="http://www.w3.org/2000/svg" xmlns:xlink="http://www.w3.org/1999/xlink" viewBox="0 0 20 26"><defs><style>.cls-1,.cls-5{fill:none;}.cls-2{clip-path:url(#clip-path);}.cls-3{fill:#363636;}.cls-4{fill:#fff;}.cls-5{stroke:#000;stroke-linecap:round;stroke-miterlimit:10;stroke-width:2px;}</style><clipPath id="clip-path"><rect class="cls-1" width="28.95" height="26"/></clipPath></defs><title>Ресурс 11</title><g id="Слой_2" data-name="Слой 2"><g id="Layer_1" data-name="Layer 1"><g class="cls-2"><g class="cls-2"><path class="cls-3" d="M17.27,4.21l-.75-.73-.73-.75C14.08,1,13.06,0,12,0H4A4,4,0,0,0,0,4V22a4,4,0,0,0,4,4H16a4,4,0,0,0,4-4V8c0-1.06-1-2.08-2.73-3.79M18,22a2,2,0,0,1-2,2H4a2,2,0,0,1-2-2V4A2,2,0,0,1,4,2h7.29c.72.18.71,1.07.71,2V7a1,1,0,0,0,1,1h3c1,0,2,0,2,1Z"/><line class="cls-4" x1="4.31" y1="5.7" x2="9.15" y2="5.7"/><line class="cls-5" x1="4.31" y1="5.7" x2="9.15" y2="5.7"/><line class="cls-4" x1="4.31" y1="10.23" x2="15.1" y2="10.23"/><line class="cls-5" x1="4.31" y1="10.23" x2="15.1" y2="10.23"/><line class="cls-4" x1="4.31" y1="15.05" x2="15.1" y2="15.05"/><line class="cls-5" x1="4.31" y1="15.05" x2="15.1" y2="15.05"/><line class="cls-4" x1="4.31" y1="19.58" x2="15.1" y2="19.58"/><line class="cls-5" x1="4.31" y1="19.58" x2="15.1" y2="19.58"/></g></g></g></g></svg>