<svg xmlns="http://www.w3.org/2000/svg" xmlns:xlink="http://www.w3.org/1999/xlink" viewBox="0 0 35.28 35.28"><defs><style>.cls-1{fill:none;}.cls-2{clip-path:url(#clip-path);}.cls-3{fill:#3a414f;}</style><clipPath id="clip-path" transform="translate(0 0)"><rect class="cls-1" width="35.28" height="35.28"/></clipPath></defs><title>Ресурс 8</title><g id="Слой_2" data-name="Слой 2"><g id="Layer_1" data-name="Layer 1"><g class="cls-2"><g class="cls-2"><path class="cls-3" d="M14.1,7a6,6,0,0,1,.83-3.16c.21-.34.37-.34.65-.06a3.25,3.25,0,0,0,2,.93,3.22,3.22,0,0,0,2-.93c.28-.28.44-.28.65.06A6,6,0,0,1,21.12,7a5.54,5.54,0,0,1-.13.86,8.71,8.71,0,0,0,.9-3.55A4,4,0,0,0,17.61,0a4,4,0,0,0-4.28,4.33,8.71,8.71,0,0,0,.9,3.55A5.54,5.54,0,0,1,14.1,7M26.42,27.87a4.13,4.13,0,0,1-.11-.66A4.57,4.57,0,0,1,27,24.8c.16-.26.29-.26.5-.05a2.45,2.45,0,0,0,1.55.71,2.42,2.42,0,0,0,1.55-.71c.22-.21.34-.21.5.05a4.57,4.57,0,0,1,.64,2.41,4.13,4.13,0,0,1-.11.66,6.59,6.59,0,0,0,.69-2.71A3.05,3.05,0,0,0,29,21.85a3.05,3.05,0,0,0-3.27,3.31,6.59,6.59,0,0,0,.69,2.71M3.55,27.21a4.66,4.66,0,0,1,.63-2.41c.16-.26.29-.26.5-.05a2.45,2.45,0,0,0,1.55.71,2.42,2.42,0,0,0,1.55-.71c.22-.21.34-.21.5.05a4.57,4.57,0,0,1,.64,2.41,4.17,4.17,0,0,1-.1.66,6.74,6.74,0,0,0,.68-2.71,3.05,3.05,0,0,0-3.27-3.31A3.06,3.06,0,0,0,3,25.16a6.59,6.59,0,0,0,.69,2.71,4.17,4.17,0,0,1-.1-.66M9.89,16.9a.84.84,0,0,0,.8.66h13.9a.84.84,0,0,0,.8-.66l.4-2.09a1.94,1.94,0,0,0-1.18-2.1l-4-1.5-2.95,4.27-3-4.27-4,1.5a1.94,1.94,0,0,0-1.18,2.1Zm1.69,14.66L8.51,30.42,6.25,33.69,4,30.42.93,31.56A1.49,1.49,0,0,0,0,33.17l.31,1.6a.65.65,0,0,0,.61.51H11.57a.65.65,0,0,0,.61-.51l.31-1.6a1.49,1.49,0,0,0-.91-1.61m22.77,0-3.07-1.14L29,33.69l-2.25-3.27L23.7,31.56a1.49,1.49,0,0,0-.91,1.61l.31,1.6a.64.64,0,0,0,.61.51H34.34a.65.65,0,0,0,.61-.51l.3-1.6a1.49,1.49,0,0,0-.9-1.61M21,25.78H18.32V22.39a.68.68,0,0,0-1.36,0v3.39H14.25a.68.68,0,0,0,0,1.36H21a.68.68,0,0,0,0-1.36" transform="translate(0 0)"/></g></g></g></g></svg>