<svg xmlns="http://www.w3.org/2000/svg" xmlns:xlink="http://www.w3.org/1999/xlink" viewBox="0 0 23.55 24.16"><defs><style>.cls-1{fill:none;}.cls-2{clip-path:url(#clip-path);}.cls-3{fill:#4e637b;}</style><clipPath id="clip-path" transform="translate(0 0)"><rect class="cls-1" width="23.55" height="24.16"/></clipPath></defs><title>Ресурс 7</title><g id="Слой_2" data-name="Слой 2"><g id="Layer_1" data-name="Layer 1"><g class="cls-2"><g class="cls-2"><path class="cls-3" d="M22.09,13.2l-4,1.22-2.57-1.48a4,4,0,0,0,.1-.86,4.12,4.12,0,0,0-.1-.86L18.1,9.74l4,1.22a1.26,1.26,0,0,0,.33,0,1.14,1.14,0,0,0,.33-2.22l-2-.6,1-.6a1.13,1.13,0,1,0-1.14-2l-1,.6.46-2a1.13,1.13,0,0,0-2.21-.51L17,7.78,14.39,9.26a3.8,3.8,0,0,0-1.48-.86v-3L16,2.59A1.13,1.13,0,0,0,14.42.93L12.91,2.34V1.13a1.14,1.14,0,0,0-2.27,0V2.34L9.14.93A1.14,1.14,0,0,0,7.59,2.59l3.05,2.85v3a3.8,3.8,0,0,0-1.48.86L6.59,7.78,5.65,3.71a1.13,1.13,0,0,0-2.21.51l.47,2-1.05-.6a1.13,1.13,0,1,0-1.13,2l1,.6-2,.6A1.14,1.14,0,0,0,1.13,11a1.26,1.26,0,0,0,.33,0l4-1.22L8,11.22a3.55,3.55,0,0,0-.1.86,3.49,3.49,0,0,0,.1.86L5.46,14.42l-4-1.22A1.13,1.13,0,0,0,.8,15.37l2,.6-1,.61a1.13,1.13,0,0,0,.57,2.11,1.15,1.15,0,0,0,.56-.15l1.05-.61-.47,2a1.13,1.13,0,0,0,.85,1.36,1.15,1.15,0,0,0,.26,0,1.13,1.13,0,0,0,1.1-.88l.94-4.06L9.16,14.9a3.8,3.8,0,0,0,1.48.86v3L7.59,21.57a1.14,1.14,0,0,0,1.55,1.66l1.5-1.4V23a1.14,1.14,0,0,0,2.27,0v-1.2l1.51,1.4a1.12,1.12,0,0,0,.77.31,1.19,1.19,0,0,0,.83-.36A1.15,1.15,0,0,0,16,21.57l-3.05-2.84v-3a3.8,3.8,0,0,0,1.48-.86L17,16.39l.94,4.06a1.14,1.14,0,0,0,1.11.88,1.07,1.07,0,0,0,.25,0,1.13,1.13,0,0,0,.85-1.36l-.46-2,1,.61a1.18,1.18,0,0,0,.57.15,1.13,1.13,0,0,0,.56-2.11l-1-.61,2-.6A1.12,1.12,0,0,0,23.5,14a1.13,1.13,0,0,0-1.41-.76m-10.31.92a2,2,0,1,1,2-2,2,2,0,0,1-2,2" transform="translate(0 0)"/></g></g></g></g></svg>