<?xml version="1.0" encoding="UTF-8"?><!DOCTYPE svg PUBLIC "-//W3C//DTD SVG 1.1//EN" "http://www.w3.org/Graphics/SVG/1.1/DTD/svg11.dtd"><svg xmlns="http://www.w3.org/2000/svg"><defs>
        <style>
            .cls-1{fill:none}.cls-2{clip-path:url(#clip-path)}.cls-3{fill:#201600}
        </style>
        <clipPath id="clip-path">
            <path class="cls-1" d="M0 0h140.49v199.72H0z"/>
        </clipPath>
    
        <style>
            .cls-1{fill:none}.cls-2{clip-path:url(#clip-path)}
        </style>
        <clipPath id="clip-path">
            <path class="cls-1" d="M0 0h135.73v180.89H0z"/>
        </clipPath>
    
        <style>
            .cls-1{fill:none}.cls-2{clip-path:url(#clip-path)}.cls-3{fill:#4e4f4f}
        </style>
        <clipPath id="clip-path">
            <path class="cls-1" d="M0 0h73.02v48.21H0z"/>
        </clipPath>
    
        <style>
            .cls-1,.cls-5{fill:none}.cls-2{clip-path:url(#clip-path)}.cls-3{fill:#363636}.cls-4{fill:#fff}.cls-5{stroke:#000;stroke-linecap:round;stroke-miterlimit:10;stroke-width:2px}
        </style>
        <clipPath id="clip-path">
            <path class="cls-1" d="M0 0h28.95v26H0z"/>
        </clipPath>
    
        <style>
            .cls-1{fill:none}.cls-2{clip-path:url(#clip-path)}.cls-3{fill:#3a414f}
        </style>
        <clipPath id="clip-path">
            <path class="cls-1" d="M0 0h35.28v35.28H0z"/>
        </clipPath>
    
        <style>
            .cls-1{fill:none}.cls-2{clip-path:url(#clip-path)}.cls-3{fill:#4e637b}
        </style>
        <clipPath id="clip-path">
            <path class="cls-1" d="M0 0h23.55v24.16H0z"/>
        </clipPath>
    </defs><symbol id="icon-award" viewBox="0 0 140.49 199.72">
    
    <title>
        &#x420;&#x435;&#x441;&#x443;&#x440;&#x441; 6
    </title>
    <g id="&#x421;&#x43B;&#x43E;&#x439;_2" data-name="&#x421;&#x43B;&#x43E;&#x439; 2">
        <g class="cls-2" id="Layer_1" data-name="Layer 1">
            <g class="cls-2">
                <path class="cls-3" d="M68.08 0h4.3c.57.11 1.13.24 1.7.33 5.29.89 10.71 1.3 15.84 2.75a66 66 0 0 1 32 20.47 69.43 69.43 0 0 1 14.27 66.1 67.61 67.61 0 0 1-17.32 28.71 3 3 0 0 0-.85 3.68q10.94 29.82 21.71 59.69c.22.62.4 1.25.72 2.23l-29.34-13.7-13.67 29.46c-.91-2.42-1.65-4.34-2.35-6.28q-9.66-26.67-19.27-53.35a1.93 1.93 0 0 0-2.38-1.56 30.88 30.88 0 0 1-6.23 0c-1.54-.15-2.14.36-2.63 1.75q-10.3 28.59-20.7 57.17c-.23.64-.49 1.27-.87 2.23-4.68-10-9.18-19.71-13.71-29.43L0 184c.28-1 .42-1.51.61-2q10.8-29.76 21.67-59.5a3.41 3.41 0 0 0-.84-4.19C8.36 104.87 1.57 88.84 1.25 70.11a66.88 66.88 0 0 1 5.69-28.39A68.4 68.4 0 0 1 36.43 9a62.79 62.79 0 0 1 22.42-7.86C61.92.71 65 .38 68.08 0m2.13 115.61A46.26 46.26 0 1 0 24.1 69.49a46 46 0 0 0 46.11 46.12"/>
            </g>
        </g>
    </g>
</symbol><symbol id="icon-calc" viewBox="0 0 135.73 180.89">
    
    <title>
        &#x420;&#x435;&#x441;&#x443;&#x440;&#x441; 2
    </title>
    <g id="&#x421;&#x43B;&#x43E;&#x439;_2" data-name="&#x421;&#x43B;&#x43E;&#x439; 2">
        <g class="cls-2" id="Layer_1" data-name="Layer 1">
            <path d="M126.53 180.89H9.23a31.37 31.37 0 0 1-3-1.27C1.52 177.08 0 173 0 167.85q.11-52.33 0-104.68V11.44A11.19 11.19 0 0 1 8.3.4a8.4 8.4 0 0 0 .93-.4h117.3c.08.08.15.2.24.23 6.44 2.18 8.94 5.69 8.94 12.45v156.41a11.16 11.16 0 0 1-6.77 10.84c-.78.37-1.61.64-2.41 1M22.73 56.4H113V22.71H22.73zM45.14 68H22.75v22.37h22.39zm34 0H56.69v22.3h22.44zm33.9-.06H90.59v22.4H113zm-90.28 56.3h22.41v-22.4H22.76zm56.34-22.37H56.71v22.4H79.1zm11.51 22.35H113v-22.39H90.61zm-67.85 33.93h22.37V135.7H22.76zm33.94 0h22.39v-22.4H56.7zm33.91 0H113v-22.4H90.61z" class="cls-2"/>
        </g>
    </g>
</symbol><symbol id="icon-car" viewBox="0 0 73.02 48.21">
    
    <title>
        &#x420;&#x435;&#x441;&#x443;&#x440;&#x441; 9
    </title>
    <g id="&#x421;&#x43B;&#x43E;&#x439;_2" data-name="&#x421;&#x43B;&#x43E;&#x439; 2">
        <g class="cls-2" id="Layer_1" data-name="Layer 1">
            <g class="cls-2">
                <path class="cls-3" d="M62.52 42.26a6 6 0 1 1-6-5.95 6 6 0 0 1 6 5.95M1.92 40a39.58 39.58 0 0 0 5.79.38A8.83 8.83 0 0 1 25 40.7c7.28.08 15.35.12 22.83.1a8.83 8.83 0 0 1 17.38-.2c5.24-.13 6.41-.33 6.74-.61s.78-4.44.93-9.76H0c-.08 4.43.48 8.92 1.92 9.77m14.42-3.68a6 6 0 1 0 5.95 5.95 6 6 0 0 0-5.95-5.95m56.63-9H.16c.29-3.11.9-5.74 1.76-6.36 2.3-1.66 16-11.85 16.81-12.48.47-.35 5.51-.31 9.87-.2.07-4.18.3-7.15.8-7.44C31.27-.2 70.66-.38 72 .87c.81.79 1.19 15.35 1 26.48M25.12 12.84h-5l-8.38 6.26-2.19 1.62v.17h15.57zm12.74 4.53l3.68-.62-.33-1.88-3.67.62-.4-2.34 3.93-.66-.32-1.91-6.26 1.06 1.74 10.25 2.32-.4zM52 19.21c-.26-.36-.81-1.64-1.33-2.74A2.62 2.62 0 0 0 49 14.79a2.75 2.75 0 0 0 1.38-2.83 2.63 2.63 0 0 0-1.3-2 5.29 5.29 0 0 0-3.44-.24 22.09 22.09 0 0 0-3.06.73l1.72 10.11 2.29-.39-.69-4 .71-.12c.94-.14 1.44.13 1.93 1.36a13.75 13.75 0 0 0 1.12 2.27zm7.81-1.32L59.45 16l-4.2.71-.41-2.42 3.77-.64-.33-1.89-3.76.64-.37-2.13 4-.67-.32-1.9-6.32 1.06L53.24 19zm8.11-1.37l-.33-1.91-4.2.72L63 12.9l3.76-.64-.32-1.89-3.82.63-.35-2.12 4-.68-.32-1.9-6.33 1.08 1.74 10.24zm-21.8-5.16a6.23 6.23 0 0 0-1 .25l.48 2.83.9-.16c1.16-.19 1.75-.88 1.59-1.78s-.88-1.3-1.94-1.14"/>
            </g>
        </g>
    </g>
</symbol><symbol id="icon-facebook" viewBox="0 0 10 19">
    <title>
        facebook
    </title>
    <path d="M9.766.157v2.946H8.014c-.64 0-1.071.134-1.295.402-.223.268-.335.67-.335 1.205v2.11h3.27l-.435 3.303H6.384v8.471H2.97v-8.47H.123V6.82H2.97V4.387c0-1.384.387-2.457 1.161-3.22C4.904.404 5.934.023 7.222.023c1.093 0 1.941.045 2.544.134z" fill-rule="evenodd"/>
</symbol><symbol id="icon-list" viewBox="0 0 20 26">
    
    <title>
        &#x420;&#x435;&#x441;&#x443;&#x440;&#x441; 11
    </title>
    <g id="&#x421;&#x43B;&#x43E;&#x439;_2" data-name="&#x421;&#x43B;&#x43E;&#x439; 2">
        <g class="cls-2" id="Layer_1" data-name="Layer 1">
            <g class="cls-2">
                <path class="cls-3" d="M17.27 4.21l-.75-.73-.73-.75C14.08 1 13.06 0 12 0H4a4 4 0 0 0-4 4v18a4 4 0 0 0 4 4h12a4 4 0 0 0 4-4V8c0-1.06-1-2.08-2.73-3.79M18 22a2 2 0 0 1-2 2H4a2 2 0 0 1-2-2V4a2 2 0 0 1 2-2h7.29c.72.18.71 1.07.71 2v3a1 1 0 0 0 1 1h3c1 0 2 0 2 1z"/>
                <path class="cls-4" d="M4.31 5.7h4.84"/>
                <path class="cls-5" d="M4.31 5.7h4.84"/>
                <path class="cls-4" d="M4.31 10.23H15.1"/>
                <path class="cls-5" d="M4.31 10.23H15.1"/>
                <path class="cls-4" d="M4.31 15.05H15.1"/>
                <path class="cls-5" d="M4.31 15.05H15.1"/>
                <path class="cls-4" d="M4.31 19.58H15.1"/>
                <path class="cls-5" d="M4.31 19.58H15.1"/>
            </g>
        </g>
    </g>
</symbol><symbol id="icon-people" viewBox="0 0 35.28 35.28">
    
    <title>
        &#x420;&#x435;&#x441;&#x443;&#x440;&#x441; 8
    </title>
    <g id="&#x421;&#x43B;&#x43E;&#x439;_2" data-name="&#x421;&#x43B;&#x43E;&#x439; 2">
        <g class="cls-2" id="Layer_1" data-name="Layer 1">
            <g class="cls-2">
                <path class="cls-3" d="M14.1 7a6 6 0 0 1 .83-3.16c.21-.34.37-.34.65-.06a3.25 3.25 0 0 0 2 .93 3.22 3.22 0 0 0 2-.93c.28-.28.44-.28.65.06A6 6 0 0 1 21.12 7a5.54 5.54 0 0 1-.13.86 8.71 8.71 0 0 0 .9-3.55A4 4 0 0 0 17.61 0a4 4 0 0 0-4.28 4.33 8.71 8.71 0 0 0 .9 3.55A5.54 5.54 0 0 1 14.1 7m12.32 20.87a4.13 4.13 0 0 1-.11-.66A4.57 4.57 0 0 1 27 24.8c.16-.26.29-.26.5-.05a2.45 2.45 0 0 0 1.55.71 2.42 2.42 0 0 0 1.55-.71c.22-.21.34-.21.5.05a4.57 4.57 0 0 1 .64 2.41 4.13 4.13 0 0 1-.11.66 6.59 6.59 0 0 0 .69-2.71A3.05 3.05 0 0 0 29 21.85a3.05 3.05 0 0 0-3.27 3.31 6.59 6.59 0 0 0 .69 2.71m-22.87-.66a4.66 4.66 0 0 1 .63-2.41c.16-.26.29-.26.5-.05a2.45 2.45 0 0 0 1.55.71 2.42 2.42 0 0 0 1.55-.71c.22-.21.34-.21.5.05a4.57 4.57 0 0 1 .64 2.41 4.17 4.17 0 0 1-.1.66 6.74 6.74 0 0 0 .68-2.71 3.05 3.05 0 0 0-3.27-3.31A3.06 3.06 0 0 0 3 25.16a6.59 6.59 0 0 0 .69 2.71 4.17 4.17 0 0 1-.1-.66m6.3-10.31a.84.84 0 0 0 .8.66h13.9a.84.84 0 0 0 .8-.66l.4-2.09a1.94 1.94 0 0 0-1.18-2.1l-4-1.5-2.95 4.27-3-4.27-4 1.5a1.94 1.94 0 0 0-1.18 2.1zm1.69 14.66l-3.07-1.14-2.26 3.27L4 30.42.93 31.56A1.49 1.49 0 0 0 0 33.17l.31 1.6a.65.65 0 0 0 .61.51h10.65a.65.65 0 0 0 .61-.51l.31-1.6a1.49 1.49 0 0 0-.91-1.61m22.77 0l-3.07-1.14L29 33.69l-2.25-3.27-3.05 1.14a1.49 1.49 0 0 0-.91 1.61l.31 1.6a.64.64 0 0 0 .61.51h10.63a.65.65 0 0 0 .61-.51l.3-1.6a1.49 1.49 0 0 0-.9-1.61M21 25.78h-2.68v-3.39a.68.68 0 0 0-1.36 0v3.39h-2.71a.68.68 0 0 0 0 1.36H21a.68.68 0 0 0 0-1.36"/>
            </g>
        </g>
    </g>
</symbol><symbol id="icon-snow" viewBox="0 0 23.55 24.16">
    
    <title>
        &#x420;&#x435;&#x441;&#x443;&#x440;&#x441; 7
    </title>
    <g id="&#x421;&#x43B;&#x43E;&#x439;_2" data-name="&#x421;&#x43B;&#x43E;&#x439; 2">
        <g class="cls-2" id="Layer_1" data-name="Layer 1">
            <g class="cls-2">
                <path class="cls-3" d="M22.09 13.2l-4 1.22-2.57-1.48a4 4 0 0 0 .1-.86 4.12 4.12 0 0 0-.1-.86l2.58-1.48 4 1.22a1.26 1.26 0 0 0 .33 0 1.14 1.14 0 0 0 .33-2.22l-2-.6 1-.6a1.13 1.13 0 1 0-1.14-2l-1 .6.46-2a1.13 1.13 0 0 0-2.21-.51L17 7.78l-2.61 1.48a3.8 3.8 0 0 0-1.48-.86v-3L16 2.59A1.13 1.13 0 0 0 14.42.93l-1.51 1.41V1.13a1.14 1.14 0 0 0-2.27 0v1.21L9.14.93a1.14 1.14 0 0 0-1.55 1.66l3.05 2.85v3a3.8 3.8 0 0 0-1.48.86L6.59 7.78l-.94-4.07a1.13 1.13 0 0 0-2.21.51l.47 2-1.05-.6a1.13 1.13 0 1 0-1.13 2l1 .6-2 .6a1.14 1.14 0 0 0 .4 2.18 1.26 1.26 0 0 0 .33 0l4-1.22L8 11.22a3.55 3.55 0 0 0-.1.86 3.49 3.49 0 0 0 .1.86l-2.54 1.48-4-1.22a1.13 1.13 0 0 0-.66 2.17l2 .6-1 .61a1.13 1.13 0 0 0 .57 2.11 1.15 1.15 0 0 0 .56-.15l1.05-.61-.47 2a1.13 1.13 0 0 0 .85 1.36 1.15 1.15 0 0 0 .26 0 1.13 1.13 0 0 0 1.1-.88l.94-4.06 2.5-1.45a3.8 3.8 0 0 0 1.48.86v3l-3.05 2.81a1.14 1.14 0 0 0 1.55 1.66l1.5-1.4V23a1.14 1.14 0 0 0 2.27 0v-1.2l1.51 1.4a1.12 1.12 0 0 0 .77.31 1.19 1.19 0 0 0 .83-.36 1.15 1.15 0 0 0-.02-1.58l-3.05-2.84v-3a3.8 3.8 0 0 0 1.48-.86L17 16.39l.94 4.06a1.14 1.14 0 0 0 1.11.88 1.07 1.07 0 0 0 .25 0 1.13 1.13 0 0 0 .85-1.36l-.46-2 1 .61a1.18 1.18 0 0 0 .57.15 1.13 1.13 0 0 0 .56-2.11l-1-.61 2-.6A1.12 1.12 0 0 0 23.5 14a1.13 1.13 0 0 0-1.41-.76m-10.31.92a2 2 0 1 1 2-2 2 2 0 0 1-2 2"/>
            </g>
        </g>
    </g>
</symbol></svg>